<?xml version="1.0" encoding="UTF-8"?>
<svg xmlns="http://www.w3.org/2000/svg" version="1.1" width="200" height="200" viewBox="0 0 200 200"><rect x="0" y="0" width="200" height="200" fill="#ffffff"/><g transform="scale(8)"><g transform="translate(0,0)"><path fill-rule="evenodd" d="M8 0L8 4L9 4L9 5L8 5L8 7L9 7L9 6L10 6L10 9L11 9L11 8L12 8L12 9L13 9L13 11L12 11L12 12L11 12L11 13L10 13L10 14L9 14L9 12L10 12L10 11L11 11L11 10L9 10L9 9L7 9L7 8L4 8L4 9L3 9L3 10L2 10L2 11L1 11L1 10L0 10L0 12L2 12L2 11L3 11L3 13L0 13L0 14L2 14L2 15L3 15L3 16L5 16L5 17L7 17L7 16L5 16L5 15L10 15L10 16L8 16L8 18L9 18L9 19L8 19L8 21L9 21L9 23L8 23L8 25L9 25L9 24L12 24L12 25L14 25L14 23L17 23L17 22L16 22L16 21L18 21L18 23L19 23L19 25L20 25L20 22L19 22L19 21L21 21L21 23L22 23L22 25L25 25L25 24L24 24L24 22L25 22L25 20L24 20L24 19L22 19L22 21L21 21L21 16L20 16L20 15L19 15L19 16L16 16L16 17L14 17L14 15L16 15L16 13L17 13L17 15L18 15L18 13L20 13L20 14L21 14L21 13L20 13L20 12L21 12L21 11L22 11L22 18L23 18L23 16L24 16L24 17L25 17L25 15L23 15L23 10L24 10L24 9L25 9L25 8L21 8L21 9L20 9L20 8L19 8L19 9L20 9L20 10L16 10L16 9L17 9L17 8L16 8L16 7L17 7L17 5L16 5L16 3L15 3L15 5L14 5L14 3L13 3L13 2L15 2L15 1L16 1L16 2L17 2L17 1L16 1L16 0L15 0L15 1L14 1L14 0L13 0L13 1L11 1L11 2L12 2L12 5L13 5L13 6L12 6L12 7L11 7L11 3L10 3L10 2L9 2L9 0ZM15 5L15 7L14 7L14 6L13 6L13 7L12 7L12 8L13 8L13 9L14 9L14 11L13 11L13 12L12 12L12 13L11 13L11 14L10 14L10 15L11 15L11 14L12 14L12 13L13 13L13 14L14 14L14 13L13 13L13 12L14 12L14 11L15 11L15 13L16 13L16 11L15 11L15 9L16 9L16 8L15 8L15 7L16 7L16 5ZM0 8L0 9L2 9L2 8ZM14 8L14 9L15 9L15 8ZM6 9L6 10L7 10L7 9ZM22 9L22 10L23 10L23 9ZM8 10L8 11L9 11L9 10ZM20 10L20 11L19 11L19 12L20 12L20 11L21 11L21 10ZM4 11L4 15L5 15L5 12L7 12L7 11ZM17 11L17 13L18 13L18 11ZM24 12L24 13L25 13L25 12ZM6 13L6 14L8 14L8 13ZM12 15L12 16L11 16L11 17L9 17L9 18L10 18L10 19L9 19L9 21L11 21L11 22L12 22L12 21L13 21L13 22L15 22L15 21L16 21L16 20L15 20L15 21L13 21L13 20L14 20L14 19L16 19L16 18L13 18L13 17L12 17L12 16L13 16L13 15ZM0 16L0 17L2 17L2 16ZM17 17L17 20L20 20L20 17ZM18 18L18 19L19 19L19 18ZM10 19L10 20L11 20L11 21L12 21L12 20L13 20L13 19L12 19L12 20L11 20L11 19ZM22 22L22 23L23 23L23 22ZM12 23L12 24L13 24L13 23ZM0 0L0 7L7 7L7 0ZM1 1L1 6L6 6L6 1ZM2 2L2 5L5 5L5 2ZM18 0L18 7L25 7L25 0ZM19 1L19 6L24 6L24 1ZM20 2L20 5L23 5L23 2ZM0 18L0 25L7 25L7 18ZM1 19L1 24L6 24L6 19ZM2 20L2 23L5 23L5 20Z" fill="#000000"/></g></g></svg>
