<?xml version="1.0" encoding="UTF-8"?>
<svg xmlns="http://www.w3.org/2000/svg" version="1.1" width="200" height="200" viewBox="0 0 200 200"><rect x="0" y="0" width="200" height="200" fill="#ffffff"/><g transform="scale(8)"><g transform="translate(0,0)"><path fill-rule="evenodd" d="M9 0L9 1L8 1L8 2L9 2L9 3L8 3L8 4L10 4L10 7L11 7L11 4L12 4L12 5L15 5L15 6L14 6L14 7L15 7L15 9L14 9L14 8L13 8L13 6L12 6L12 9L13 9L13 10L11 10L11 11L10 11L10 9L11 9L11 8L6 8L6 9L5 9L5 8L0 8L0 11L1 11L1 9L2 9L2 10L3 10L3 11L4 11L4 12L3 12L3 13L5 13L5 14L3 14L3 16L2 16L2 17L3 17L3 16L4 16L4 15L7 15L7 14L8 14L8 15L9 15L9 16L5 16L5 17L8 17L8 19L10 19L10 17L11 17L11 13L12 13L12 14L13 14L13 15L12 15L12 17L13 17L13 16L14 16L14 17L16 17L16 19L14 19L14 20L15 20L15 21L12 21L12 19L13 19L13 18L11 18L11 20L10 20L10 21L9 21L9 20L8 20L8 25L9 25L9 23L10 23L10 22L11 22L11 21L12 21L12 22L13 22L13 23L12 23L12 25L13 25L13 24L14 24L14 25L16 25L16 24L20 24L20 25L25 25L25 18L23 18L23 16L20 16L20 15L19 15L19 14L20 14L20 13L21 13L21 14L23 14L23 15L25 15L25 14L23 14L23 12L24 12L24 13L25 13L25 10L24 10L24 8L23 8L23 12L21 12L21 11L22 11L22 10L21 10L21 11L20 11L20 8L19 8L19 11L20 11L20 13L19 13L19 12L18 12L18 11L17 11L17 12L15 12L15 13L17 13L17 14L14 14L14 13L12 13L12 11L13 11L13 10L15 10L15 11L16 11L16 10L15 10L15 9L18 9L18 8L17 8L17 5L15 5L15 4L17 4L17 2L16 2L16 1L15 1L15 0L13 0L13 1L11 1L11 2L10 2L10 0ZM13 1L13 2L12 2L12 4L13 4L13 3L14 3L14 4L15 4L15 3L16 3L16 2L15 2L15 1ZM10 3L10 4L11 4L11 3ZM8 5L8 7L9 7L9 5ZM15 6L15 7L16 7L16 6ZM21 8L21 9L22 9L22 8ZM4 9L4 10L5 10L5 9ZM6 9L6 10L7 10L7 11L5 11L5 13L6 13L6 14L7 14L7 13L8 13L8 11L9 11L9 9L8 9L8 10L7 10L7 9ZM6 12L6 13L7 13L7 12ZM10 12L10 13L9 13L9 14L10 14L10 13L11 13L11 12ZM17 12L17 13L18 13L18 14L17 14L17 15L18 15L18 14L19 14L19 13L18 13L18 12ZM0 13L0 17L1 17L1 14L2 14L2 13ZM14 15L14 16L16 16L16 15ZM9 16L9 17L10 17L10 16ZM24 16L24 17L25 17L25 16ZM17 17L17 20L20 20L20 17ZM18 18L18 19L19 19L19 18ZM21 18L21 20L24 20L24 19L22 19L22 18ZM15 21L15 22L16 22L16 23L14 23L14 24L16 24L16 23L17 23L17 22L18 22L18 23L19 23L19 22L18 22L18 21ZM21 21L21 22L20 22L20 24L24 24L24 22L23 22L23 23L21 23L21 22L22 22L22 21ZM10 24L10 25L11 25L11 24ZM0 0L0 7L7 7L7 0ZM1 1L1 6L6 6L6 1ZM2 2L2 5L5 5L5 2ZM18 0L18 7L25 7L25 0ZM19 1L19 6L24 6L24 1ZM20 2L20 5L23 5L23 2ZM0 18L0 25L7 25L7 18ZM1 19L1 24L6 24L6 19ZM2 20L2 23L5 23L5 20Z" fill="#000000"/></g></g></svg>
