<?xml version="1.0" encoding="UTF-8"?>
<svg xmlns="http://www.w3.org/2000/svg" version="1.1" width="200" height="200" viewBox="0 0 200 200"><rect x="0" y="0" width="200" height="200" fill="#ffffff"/><g transform="scale(9.524)"><g transform="translate(0,0)"><path fill-rule="evenodd" d="M9 0L9 1L8 1L8 3L9 3L9 4L8 4L8 8L6 8L6 9L7 9L7 10L5 10L5 11L4 11L4 8L3 8L3 11L4 11L4 13L8 13L8 15L9 15L9 13L10 13L10 12L12 12L12 13L11 13L11 14L10 14L10 17L8 17L8 18L10 18L10 19L8 19L8 21L12 21L12 19L13 19L13 20L14 20L14 19L15 19L15 18L16 18L16 20L17 20L17 21L18 21L18 20L17 20L17 17L18 17L18 16L17 16L17 17L14 17L14 15L15 15L15 16L16 16L16 15L20 15L20 16L19 16L19 18L20 18L20 19L21 19L21 17L20 17L20 16L21 16L21 15L20 15L20 14L17 14L17 13L16 13L16 12L18 12L18 11L16 11L16 10L17 10L17 8L14 8L14 9L16 9L16 10L14 10L14 12L12 12L12 11L13 11L13 10L12 10L12 11L11 11L11 8L13 8L13 4L12 4L12 3L13 3L13 2L12 2L12 1L13 1L13 0L11 0L11 2L12 2L12 3L11 3L11 4L12 4L12 5L11 5L11 6L10 6L10 7L9 7L9 4L10 4L10 0ZM11 6L11 7L12 7L12 6ZM0 8L0 9L1 9L1 10L2 10L2 8ZM8 8L8 10L7 10L7 11L5 11L5 12L8 12L8 10L9 10L9 12L10 12L10 10L9 10L9 8ZM18 8L18 10L20 10L20 13L21 13L21 9L20 9L20 8ZM0 11L0 13L3 13L3 12L1 12L1 11ZM14 12L14 13L12 13L12 14L11 14L11 15L14 15L14 14L15 14L15 12ZM12 16L12 17L11 17L11 19L10 19L10 20L11 20L11 19L12 19L12 18L13 18L13 19L14 19L14 18L13 18L13 16ZM19 20L19 21L20 21L20 20ZM0 0L0 7L7 7L7 0ZM1 1L1 6L6 6L6 1ZM2 2L2 5L5 5L5 2ZM14 0L14 7L21 7L21 0ZM15 1L15 6L20 6L20 1ZM16 2L16 5L19 5L19 2ZM0 14L0 21L7 21L7 14ZM1 15L1 20L6 20L6 15ZM2 16L2 19L5 19L5 16Z" fill="#000000"/></g></g></svg>
