<?xml version="1.0" encoding="UTF-8"?>
<svg xmlns="http://www.w3.org/2000/svg" version="1.1" width="200" height="200" viewBox="0 0 200 200"><rect x="0" y="0" width="200" height="200" fill="#ffffff"/><g transform="scale(8)"><g transform="translate(0,0)"><path fill-rule="evenodd" d="M8 0L8 1L10 1L10 0ZM14 0L14 1L13 1L13 2L11 2L11 4L10 4L10 3L9 3L9 2L8 2L8 5L9 5L9 6L8 6L8 7L9 7L9 8L8 8L8 9L7 9L7 8L6 8L6 9L4 9L4 8L0 8L0 10L1 10L1 11L0 11L0 13L1 13L1 15L0 15L0 16L1 16L1 15L2 15L2 16L3 16L3 17L4 17L4 16L3 16L3 15L5 15L5 17L7 17L7 16L8 16L8 14L6 14L6 13L9 13L9 17L8 17L8 18L9 18L9 19L10 19L10 18L11 18L11 19L12 19L12 20L11 20L11 21L12 21L12 22L10 22L10 20L9 20L9 21L8 21L8 25L9 25L9 22L10 22L10 23L14 23L14 22L15 22L15 21L14 21L14 20L13 20L13 18L14 18L14 17L12 17L12 16L14 16L14 15L15 15L15 18L16 18L16 21L18 21L18 23L17 23L17 24L18 24L18 23L21 23L21 24L20 24L20 25L25 25L25 24L23 24L23 23L24 23L24 22L25 22L25 21L24 21L24 19L25 19L25 17L24 17L24 16L22 16L22 17L24 17L24 18L22 18L22 19L21 19L21 16L20 16L20 14L21 14L21 15L24 15L24 14L25 14L25 12L24 12L24 11L21 11L21 10L20 10L20 9L23 9L23 10L24 10L24 9L25 9L25 8L24 8L24 9L23 9L23 8L20 8L20 9L19 9L19 10L17 10L17 11L15 11L15 9L16 9L16 8L15 8L15 6L14 6L14 2L15 2L15 5L16 5L16 4L17 4L17 3L16 3L16 2L17 2L17 1L16 1L16 2L15 2L15 0ZM12 3L12 5L10 5L10 6L9 6L9 7L10 7L10 8L9 8L9 9L10 9L10 10L8 10L8 11L9 11L9 12L10 12L10 13L11 13L11 11L14 11L14 12L12 12L12 14L10 14L10 17L11 17L11 18L12 18L12 17L11 17L11 16L12 16L12 14L13 14L13 15L14 15L14 14L13 14L13 13L15 13L15 11L14 11L14 9L15 9L15 8L14 8L14 6L13 6L13 7L12 7L12 5L13 5L13 3ZM10 6L10 7L11 7L11 8L12 8L12 7L11 7L11 6ZM16 6L16 7L17 7L17 6ZM17 8L17 9L18 9L18 8ZM1 9L1 10L2 10L2 11L1 11L1 13L2 13L2 15L3 15L3 12L4 12L4 14L5 14L5 13L6 13L6 12L7 12L7 11L6 11L6 10L7 10L7 9L6 9L6 10L5 10L5 11L4 11L4 9L3 9L3 10L2 10L2 9ZM5 11L5 12L6 12L6 11ZM17 12L17 13L16 13L16 14L15 14L15 15L16 15L16 16L17 16L17 15L19 15L19 14L18 14L18 12ZM19 12L19 13L20 13L20 12ZM23 12L23 13L24 13L24 12ZM21 13L21 14L22 14L22 13ZM16 14L16 15L17 15L17 14ZM6 15L6 16L7 16L7 15ZM17 17L17 20L20 20L20 17ZM18 18L18 19L19 19L19 18ZM22 19L22 20L21 20L21 23L22 23L22 21L23 21L23 19ZM15 23L15 24L14 24L14 25L16 25L16 23ZM10 24L10 25L11 25L11 24ZM12 24L12 25L13 25L13 24ZM0 0L0 7L7 7L7 0ZM1 1L1 6L6 6L6 1ZM2 2L2 5L5 5L5 2ZM18 0L18 7L25 7L25 0ZM19 1L19 6L24 6L24 1ZM20 2L20 5L23 5L23 2ZM0 18L0 25L7 25L7 18ZM1 19L1 24L6 24L6 19ZM2 20L2 23L5 23L5 20Z" fill="#000000"/></g></g></svg>
