<?xml version="1.0" encoding="UTF-8"?>
<svg xmlns="http://www.w3.org/2000/svg" version="1.1" width="200" height="200" viewBox="0 0 200 200"><rect x="0" y="0" width="200" height="200" fill="#ffffff"/><g transform="scale(8)"><g transform="translate(0,0)"><path fill-rule="evenodd" d="M9 0L9 1L8 1L8 2L9 2L9 3L8 3L8 4L10 4L10 7L11 7L11 4L12 4L12 5L15 5L15 6L14 6L14 7L15 7L15 9L14 9L14 8L13 8L13 6L12 6L12 9L14 9L14 10L11 10L11 11L10 11L10 9L11 9L11 8L6 8L6 9L9 9L9 11L8 11L8 10L6 10L6 11L3 11L3 12L2 12L2 14L4 14L4 15L3 15L3 16L2 16L2 17L3 17L3 16L6 16L6 17L8 17L8 19L9 19L9 18L10 18L10 20L11 20L11 21L12 21L12 22L13 22L13 23L12 23L12 25L13 25L13 24L14 24L14 25L16 25L16 24L20 24L20 25L25 25L25 18L23 18L23 16L20 16L20 15L19 15L19 14L20 14L20 13L21 13L21 14L23 14L23 15L25 15L25 14L23 14L23 12L24 12L24 13L25 13L25 10L24 10L24 8L23 8L23 12L21 12L21 11L22 11L22 10L21 10L21 11L20 11L20 8L19 8L19 11L20 11L20 13L19 13L19 12L18 12L18 11L17 11L17 12L15 12L15 11L16 11L16 10L15 10L15 9L18 9L18 8L17 8L17 5L15 5L15 4L17 4L17 3L16 3L16 1L15 1L15 0L14 0L14 1L11 1L11 2L10 2L10 0ZM14 1L14 2L12 2L12 4L13 4L13 3L14 3L14 4L15 4L15 1ZM10 3L10 4L11 4L11 3ZM8 5L8 7L9 7L9 5ZM15 6L15 7L16 7L16 6ZM0 8L0 9L1 9L1 10L4 10L4 9L5 9L5 8ZM21 8L21 9L22 9L22 8ZM14 10L14 11L12 11L12 13L11 13L11 12L10 12L10 13L8 13L8 14L10 14L10 13L11 13L11 17L10 17L10 16L9 16L9 15L6 15L6 14L7 14L7 13L6 13L6 12L8 12L8 11L6 11L6 12L3 12L3 13L5 13L5 15L6 15L6 16L9 16L9 17L10 17L10 18L13 18L13 19L12 19L12 21L15 21L15 22L16 22L16 23L14 23L14 24L16 24L16 23L17 23L17 22L18 22L18 23L19 23L19 22L18 22L18 21L15 21L15 20L14 20L14 19L16 19L16 16L17 16L17 15L18 15L18 14L19 14L19 13L18 13L18 12L17 12L17 13L15 13L15 12L14 12L14 11L15 11L15 10ZM0 13L0 17L1 17L1 13ZM12 13L12 14L13 14L13 15L12 15L12 17L13 17L13 16L14 16L14 17L15 17L15 16L16 16L16 15L17 15L17 14L18 14L18 13L17 13L17 14L14 14L14 13ZM14 15L14 16L15 16L15 15ZM24 16L24 17L25 17L25 16ZM17 17L17 20L20 20L20 17ZM18 18L18 19L19 19L19 18ZM21 18L21 20L24 20L24 19L22 19L22 18ZM8 20L8 25L11 25L11 24L10 24L10 23L9 23L9 20ZM21 21L21 22L20 22L20 24L24 24L24 22L23 22L23 23L21 23L21 22L22 22L22 21ZM0 0L0 7L7 7L7 0ZM1 1L1 6L6 6L6 1ZM2 2L2 5L5 5L5 2ZM18 0L18 7L25 7L25 0ZM19 1L19 6L24 6L24 1ZM20 2L20 5L23 5L23 2ZM0 18L0 25L7 25L7 18ZM1 19L1 24L6 24L6 19ZM2 20L2 23L5 23L5 20Z" fill="#000000"/></g></g></svg>
