<?xml version="1.0" encoding="UTF-8"?>
<svg xmlns="http://www.w3.org/2000/svg" version="1.1" width="200" height="200" viewBox="0 0 200 200"><rect x="0" y="0" width="200" height="200" fill="#ffffff"/><g transform="scale(8)"><g transform="translate(0,0)"><path fill-rule="evenodd" d="M8 0L8 1L10 1L10 0ZM14 0L14 1L13 1L13 2L11 2L11 4L10 4L10 3L9 3L9 2L8 2L8 5L9 5L9 6L8 6L8 7L9 7L9 8L8 8L8 9L9 9L9 10L10 10L10 9L9 9L9 8L10 8L10 7L11 7L11 8L12 8L12 7L13 7L13 6L14 6L14 8L15 8L15 6L14 6L14 2L15 2L15 0ZM16 2L16 3L15 3L15 5L16 5L16 4L17 4L17 2ZM12 3L12 5L10 5L10 6L9 6L9 7L10 7L10 6L11 6L11 7L12 7L12 5L13 5L13 3ZM16 6L16 8L17 8L17 9L18 9L18 8L17 8L17 6ZM0 8L0 9L1 9L1 10L0 10L0 12L1 12L1 10L2 10L2 12L5 12L5 13L4 13L4 14L2 14L2 13L1 13L1 15L0 15L0 16L1 16L1 15L2 15L2 17L3 17L3 15L4 15L4 17L8 17L8 18L9 18L9 19L12 19L12 20L11 20L11 21L10 21L10 23L9 23L9 21L8 21L8 25L10 25L10 24L11 24L11 23L14 23L14 22L15 22L15 21L14 21L14 20L13 20L13 18L14 18L14 17L12 17L12 16L14 16L14 15L15 15L15 18L16 18L16 21L18 21L18 23L17 23L17 24L18 24L18 23L21 23L21 24L20 24L20 25L25 25L25 24L23 24L23 23L24 23L24 22L25 22L25 21L24 21L24 19L25 19L25 17L24 17L24 16L22 16L22 17L24 17L24 18L22 18L22 19L21 19L21 16L20 16L20 14L21 14L21 15L24 15L24 14L25 14L25 12L24 12L24 11L21 11L21 10L20 10L20 9L23 9L23 10L24 10L24 9L25 9L25 8L24 8L24 9L23 9L23 8L20 8L20 9L19 9L19 10L17 10L17 11L14 11L14 10L15 10L15 9L14 9L14 10L13 10L13 11L11 11L11 13L10 13L10 12L5 12L5 11L8 11L8 10L5 10L5 9L4 9L4 8ZM6 8L6 9L7 9L7 8ZM3 9L3 10L4 10L4 11L5 11L5 10L4 10L4 9ZM12 12L12 14L11 14L11 16L12 16L12 14L13 14L13 15L14 15L14 14L13 14L13 13L15 13L15 12ZM17 12L17 13L16 13L16 14L15 14L15 15L16 15L16 16L17 16L17 15L19 15L19 14L18 14L18 12ZM19 12L19 13L20 13L20 12ZM23 12L23 13L24 13L24 12ZM6 13L6 14L7 14L7 15L6 15L6 16L7 16L7 15L8 15L8 14L7 14L7 13ZM21 13L21 14L22 14L22 13ZM4 14L4 15L5 15L5 14ZM9 14L9 15L10 15L10 14ZM8 16L8 17L9 17L9 16ZM10 17L10 18L12 18L12 17ZM17 17L17 20L20 20L20 17ZM18 18L18 19L19 19L19 18ZM22 19L22 20L21 20L21 23L22 23L22 21L23 21L23 19ZM11 21L11 22L12 22L12 21ZM15 23L15 24L14 24L14 25L16 25L16 23ZM12 24L12 25L13 25L13 24ZM0 0L0 7L7 7L7 0ZM1 1L1 6L6 6L6 1ZM2 2L2 5L5 5L5 2ZM18 0L18 7L25 7L25 0ZM19 1L19 6L24 6L24 1ZM20 2L20 5L23 5L23 2ZM0 18L0 25L7 25L7 18ZM1 19L1 24L6 24L6 19ZM2 20L2 23L5 23L5 20Z" fill="#000000"/></g></g></svg>
